<?xml version="1.0" encoding="utf-8"?>
<!-- Generator: Adobe Illustrator 24.1.1, SVG Export Plug-In . SVG Version: 6.00 Build 0)  -->
<svg version="1.1" id="Layer_1" xmlns="http://www.w3.org/2000/svg" xmlns:xlink="http://www.w3.org/1999/xlink" x="0px" y="0px"
	 viewBox="0 0 841.89 595.28" style="enable-background:new 0 0 841.89 595.28;" xml:space="preserve">
<style type="text/css">
	.st0{fill:#FFFFFF;}
	.st1{fill:#090909;}
</style>
<g>
	<g>
		<path class="st0" d="M205.24,283.71c0-62.02,0.01-124.04-0.05-186.06c0-1.87,0.28-2.36,2.29-2.36
			c143.93,0.06,287.86,0.06,431.78,0c2.14,0,2.43,0.55,2.42,2.51c-0.05,127.72-0.05,255.45,0,383.17c0,1.95-0.29,2.51-2.43,2.51
			c-143.83-0.07-287.67-0.07-431.5,0c-2.2,0-2.57-0.58-2.57-2.64c0.06-62.11,0.05-124.23,0.05-186.34c1.1-0.11,1.21,0.82,1.35,1.48
			c1.99,9.35,7.57,16.85,12.77,24.48c9.11,13.39,19.39,25.87,31.06,37.13c16.96,16.38,35.8,30.17,56.67,41.24
			c21.98,11.66,45.17,19.79,69.58,24.41c11.05,2.09,22.2,3.38,33.46,3.98c6.05,0.32,12.09,0.57,18.12,0.4
			c22.1-0.63,43.83-3.77,65.08-10.04c23.48-6.93,45.48-17.04,65.91-30.51c10.9-7.19,21.1-15.29,30.82-24.05
			c14-12.61,25.94-26.94,36.73-42.28c3.37-4.79,6.59-9.71,9.28-14.92c6.02-11.67,5.83-23.35-0.68-34.68
			c-8.5-14.81-18.86-28.26-30.32-40.93c-13.15-14.54-28.01-27.03-44.19-37.96c-20.44-13.8-42.57-24.08-66.2-31.2
			c-15.08-4.55-30.47-7.55-46.1-9.2c-11.18-1.18-22.43-1.74-33.67-1.24c-32.24,1.43-63.3,8.15-92.82,21.4
			c-21.79,9.78-41.77,22.42-59.94,37.94c-20.24,17.29-37.02,37.45-50.74,60.23c-2.07,3.44-3.46,7.13-4.51,10.98
			C206.62,282.11,206.79,283.51,205.24,283.71z"/>
		<path class="st1" d="M205.24,283.71c11.58-31.17,33.64-54.45,58.11-75.58c29.87-25.79,64.47-42.72,102.89-51.72
			c29.36-6.87,59.04-8.45,88.95-4.46c57.26,7.62,106.04,32.2,146.41,73.45c13.27,13.56,24.7,28.59,34.24,44.99
			c7.19,12.36,7.41,25.19-0.02,37.39c-37.08,60.83-90.51,99.13-159.99,114.92c-23.19,5.27-46.74,6.92-70.43,5
			c-64.67-5.22-119.48-31.22-164.04-78.51c-11.51-12.21-21.36-25.68-30.12-39.99c-2.84-4.63-4.35-9.68-5.99-14.73
			C205.24,290.89,205.24,287.3,205.24,283.71z"/>
		<path class="st0" d="M506.37,203.02c3.13,1.41,6.3,2.74,9.38,4.26c36.76,18.14,66.05,44.51,87.6,79.43
			c1.07,1.74,1.17,2.92,0.04,4.72c-33.2,52.68-80.36,85.32-141.45,97c-84.49,16.15-169.58-20.7-216.41-92.88
			c-4.17-6.42-4.22-6.46-0.02-12.82c32.95-49.96,78.81-80.8,137.45-92.7c6.58-1.33,13.22-2.2,19.9-2.87
			c1.69-0.17,2.77,0.25,3.89,1.53c20.71,23.59,8.58,61.74-21.95,68.94c-26.02,6.13-50.81-12.27-52.41-38.91
			c-0.03-0.45-0.06-0.89-0.1-1.51c-17.6,30.75-18.4,80.7,14.96,117.18c32.91,35.98,86.67,43.91,128.63,18.91
			c12.51-7.45,22.96-17.18,31.36-29.09c8.39-11.88,14.04-24.96,16.85-39.21c2.81-14.27,2.64-28.56-0.54-42.77
			c-3.15-14.11-9.21-26.94-17.7-38.69C506.02,203.35,506.2,203.18,506.37,203.02z"/>
	</g>
</g>
<g>
	<g>
		<path class="st0" d="M348.65,269.23h10.27c11.58,0,18.52,7.12,18.52,21.38c0,14.3-6.95,21.77-18.15,21.77h-10.64V269.23z
			 M358.49,306.16c7.49,0,11.78-4.94,11.78-15.55c0-10.58-4.29-15.16-11.78-15.16h-2.87v30.71H358.49z"/>
		<path class="st0" d="M391,305.93h9.45v-30.26H391v-6.44h25.87v6.44h-9.45v30.26h9.45v6.45H391V305.93z"/>
		<path class="st0" d="M432.37,269.23h7.32l10.39,24.25l3.56,9.22h0.16c-0.29-4.41-0.94-9.87-0.94-14.69v-18.77h6.64v43.15h-7.32
			l-10.39-24.27l-3.56-9.19h-0.16c0.29,4.59,0.94,9.79,0.94,14.57v18.9h-6.64V269.23z"/>
		<path class="st0" d="M472.83,290.93c0-14.18,7.61-22.49,17.79-22.49c5.24,0,8.79,2.68,11.14,5.38l-3.89,4.77
			c-1.77-2.01-3.83-3.48-7.26-3.48c-6.24,0-10.56,5.92-10.56,15.59c0,9.85,3.77,15.81,10.68,15.81c2.1,0,4.13-0.68,5.27-1.88v-9.33
			h-6.73v-6.27h13.05v19.03c-2.53,2.72-6.94,5.11-12,5.11C480.38,313.17,472.83,305.24,472.83,290.93z"/>
	</g>
</g>
</svg>
